<svg width="26" height="25" viewBox="0 0 26 25" fill="none" xmlns="http://www.w3.org/2000/svg">
<g clip-path="url(#clip0_4_72)">
<path d="M24.5679 10.625H17.0679C16.7241 10.625 16.4429 10.9062 16.4429 11.25V12.5C16.4429 12.8438 16.7241 13.125 17.0679 13.125H24.5679C24.9116 13.125 25.1929 12.8438 25.1929 12.5V11.25C25.1929 10.9062 24.9116 10.625 24.5679 10.625ZM8.94287 12.5C11.7046 12.5 13.9429 10.2617 13.9429 7.5C13.9429 4.73828 11.7046 2.5 8.94287 2.5C6.18115 2.5 3.94287 4.73828 3.94287 7.5C3.94287 10.2617 6.18115 12.5 8.94287 12.5ZM12.4429 13.75H11.7905C10.9233 14.1484 9.9585 14.375 8.94287 14.375C7.92725 14.375 6.96631 14.1484 6.09522 13.75H5.44287C2.54443 13.75 0.192871 16.1016 0.192871 19V20.625C0.192871 21.6602 1.03271 22.5 2.06787 22.5H15.8179C16.853 22.5 17.6929 21.6602 17.6929 20.625V19C17.6929 16.1016 15.3413 13.75 12.4429 13.75Z" fill="#4B63B7"/>
</g>
<defs>
<clipPath id="clip0_4_72">
<rect width="25" height="25" fill="white" transform="translate(0.192871)"/>
</clipPath>
</defs>
</svg>
