<svg width="26" height="25" viewBox="0 0 26 25" fill="none" xmlns="http://www.w3.org/2000/svg">
<g clip-path="url(#clip0_4_74)">
<path d="M9.55798 12.5C12.3197 12.5 14.558 10.2617 14.558 7.5C14.558 4.73828 12.3197 2.5 9.55798 2.5C6.79626 2.5 4.55798 4.73828 4.55798 7.5C4.55798 10.2617 6.79626 12.5 9.55798 12.5ZM13.058 13.75H12.4056C11.5385 14.1484 10.5736 14.375 9.55798 14.375C8.54236 14.375 7.58142 14.1484 6.71033 13.75H6.05798C3.15955 13.75 0.807983 16.1016 0.807983 19V20.625C0.807983 21.6602 1.64783 22.5 2.68298 22.5H13.4213C13.3275 22.2344 13.2885 21.9531 13.3197 21.668L13.5853 19.2891L13.6322 18.8555L13.9408 18.5469L16.9603 15.5273C16.0033 14.4453 14.6166 13.75 13.058 13.75V13.75ZM14.8275 19.4258L14.5619 21.8086C14.5189 22.207 14.8549 22.543 15.2494 22.4961L17.6283 22.2305L23.015 16.8438L20.2142 14.043L14.8275 19.4258V19.4258ZM25.5345 13.0039L24.0541 11.5234C23.6908 11.1602 23.097 11.1602 22.7338 11.5234L21.2572 13L21.097 13.1602L23.9017 15.9609L25.5345 14.3281C25.8978 13.9609 25.8978 13.3711 25.5345 13.0039V13.0039Z" fill="#4B63B7"/>
</g>
<defs>
<clipPath id="clip0_4_74">
<rect width="25" height="25" fill="white" transform="translate(0.807983)"/>
</clipPath>
</defs>
</svg>
